<?xml version="1.0" encoding="utf-8"?>
<!-- Generator: Adobe Adobe Illustrator 24.2.0, SVG Export Plug-In . SVG Version: 6.00 Build 0)  -->
<svg version="1.1" id="Layer_1" xmlns="http://www.w3.org/2000/svg" xmlns:xlink="http://www.w3.org/1999/xlink" x="0px" y="0px"
	 width="265.61px" height="242.96px" viewBox="0 0 265.61 242.96" style="enable-background:new 0 0 265.61 242.96;"
	 xml:space="preserve">
<style type="text/css">
	.st0{fill:#FFFFFF;stroke:#88917C;stroke-width:3;stroke-miterlimit:10;}
	.st1{fill:#FFFFFF;stroke:#88917C;stroke-width:6;stroke-miterlimit:10;}
	.st2{fill:none;stroke:#88917C;stroke-width:3;stroke-miterlimit:10;}
	.st3{fill:none;stroke:#88917C;stroke-miterlimit:10;}
	.st4{fill:none;stroke:#88917C;stroke-width:2;stroke-miterlimit:10;}
	.st5{fill:none;stroke:#85A2A6;stroke-width:2;stroke-miterlimit:10;}
</style>
<g>
	<path class="st4" d="M78.53,64.14l-0.02-1.48c-0.03-2.02,2.16-3.67,4.87-3.68l98.82-0.06c2.66,0,4.83,1.59,4.88,3.58l0.03,1.3"/>
	<path class="st4" d="M80.92,62.71l104.55-0.25c0.98,0,1.85,0.45,2.19,1.14l18.12,36.81c0.56,1.13-0.56,2.33-2.18,2.33l-141.58,0.25
		c-1.63,0-2.76-1.22-2.18-2.36l18.91-36.81C79.1,63.15,79.96,62.71,80.92,62.71z"/>
	<line class="st4" x1="133.09" y1="62.53" x2="132.7" y2="102.87"/>
	<line class="st4" x1="119.35" y1="62.92" x2="112.55" y2="103.16"/>
	<line class="st4" x1="105.54" y1="62.68" x2="92.19" y2="102.97"/>
	<line class="st4" x1="92.45" y1="62.82" x2="71.78" y2="103.11"/>
	<line class="st4" x1="146.9" y1="62.68" x2="153.25" y2="103.02"/>
	<line class="st4" x1="160.19" y1="62.77" x2="173.41" y2="102.87"/>
	<line class="st4" x1="173.93" y1="62.64" x2="193.51" y2="102.74"/>
	<path class="st4" d="M73.82,106.69l0.34,21.59c0,0.32,0.23,0.6,0.6,0.82c0.41,0.24,1,0.39,1.65,0.39l113.59-0.34
		c0.6,0,0.67-0.22,0.68-0.72l0.25-21.54"/>
	<polyline class="st4" points="73.82,134.64 73.82,154.49 190.86,154.41 190.94,134.49 	"/>
	<path class="st4" d="M188.92,129.27l3.77-0.02c1.61-0.01,2.93,1.07,2.91,2.4l0,0.31c-0.01,1.31-1.3,2.36-2.89,2.37l-119.8,0.16
		c-1.6,0-2.9-1.07-2.9-2.39l0,0c0-1.31,1.29-2.37,2.88-2.38l118.19-0.47"/>
	<path class="st4" d="M80.26,129.37c-0.08-2.72-0.15-5.43-0.23-8.15c4.89,0.03,9.78,0.07,14.66,0.1c-0.05,2.67-0.1,5.33-0.14,8"/>
	<path class="st4" d="M90.59,120.77c0.01-0.59,0.02-1.18,0.03-1.77c0.52-0.47,1.37-0.51,1.94-0.09c0.56,0.41,0.78,1.24,0.49,1.88"/>
	<path class="st4" d="M180.23,128.38c1.94,1.33,5.23,0.11,5.61-2.09c0.38-2.2-2.34-4.29-4.63-3.58
		C178.92,123.43,177.96,126.83,180.23,128.38z"/>
	<path class="st4" d="M182.06,122.1c0.08-1.93,0.15-3.87,0.09-5.84c-1.07-0.14-1.77-1.36-1.29-2.25c0.48-0.89,1.97-1.11,2.74-0.42
		c0.47,0.43,0.32,1.2-0.15,1.63s-1.15,0.58-1.81,0.68c-0.65,0.1-1.33,0.17-1.9,0.48c-0.57,0.31-1,0.94-0.8,1.52s1.21,0.81,1.54,0.29
		c0.57-0.9,2.3-0.82,2.77,0.13c0.3,0.62,1.47,0.45,1.74-0.18c0.27-0.64-0.19-1.37-0.83-1.72c-0.64-0.34-1.42-0.39-2.16-0.43"/>
	<path class="st4" d="M171,128.43c-0.05-4.4-0.09-8.8,0.12-13.1c1.55,0,4.66,0,4.66,0v13.49"/>
	<path class="st4" d="M170.97,121.16c-3.21,1.19-6.14,4.61-5.31,7.93"/>
	<path class="st4" d="M92.71,102.95c1.42,3.78,5.45,7.15,9.85,7.12c4.4-0.03,8.85-3.45,10.22-7.25"/>
	<path class="st4" d="M72.11,102.95c1.42,3.78,5.45,7.15,9.85,7.12c4.4-0.03,8.85-3.45,10.22-7.25"/>
	<path class="st4" d="M112.78,102.95c1.42,3.78,5.45,7.15,9.85,7.12c4.4-0.03,8.85-3.45,10.22-7.25"/>
	<path class="st4" d="M133.09,102.95c1.42,3.78,5.45,7.15,9.85,7.12c4.4-0.03,8.85-3.45,10.22-7.25"/>
	<path class="st4" d="M153.16,102.95c1.42,3.78,5.45,7.15,9.85,7.12c4.4-0.03,8.85-3.45,10.22-7.25"/>
	<path class="st4" d="M173.89,103.01c1.42,3.78,5.45,7.15,9.85,7.12c4.4-0.03,8.85-3.45,10.22-7.25"/>
	<path class="st4" d="M193.6,103.4c0.16,2.12,1.79,4.09,3.99,4.83s4.86,0.2,6.5-1.31c1.65-1.51,2.2-3.93,1.35-5.91"/>
	<path class="st4" d="M59.97,102.45c-0.48,2.08,0.5,4.38,2.4,5.63c1.9,1.25,4.61,1.39,6.65,0.33s3.29-3.24,3.07-5.36"/>
</g>
<path class="st4" d="M75.11,154.48c-1.43,0.01-2.86,0.02-4.29,0.03"/>
<path class="st4" d="M194.61,154.48c-1.43,0.01-2.86,0.02-4.29,0.03"/>
<ellipse class="st4" cx="87.29" cy="125.7" rx="1.62" ry="1.25"/>
</svg>
